<svg xmlns="http://www.w3.org/2000/svg" width="980" height="440" viewBox="0 0 980 440">
    <rect x="0" y="0" width="980" height="440" fill="#0f1115" rx="14"/>
    <text x="24" y="38" fill="#e6edf7" font-size="28" font-family="Arial" font-weight="700">Projected Room Occupancy % (Next 14 Days)</text>
<polyline points="80.0,360.0 143.8,287.0 207.7,214.7 271.5,142.3 335.4,214.7 399.2,70.0 463.1,70.0 526.9,142.3 590.8,214.7 654.6,142.3 718.5,70.0 782.3,70.0 846.2,214.7 910.0,287.0" fill="none" stroke="#69d2b0" stroke-width="4"/>
<circle cx="80.0" cy="360.0" r="5" fill="#69d2b0"/>
<text x="88.0" y="352.0" fill="#9fb0c8" font-size="13" font-family="Arial">44.4</text>
<circle cx="143.8" cy="287.0" r="5" fill="#69d2b0"/>
<text x="151.8" y="279.0" fill="#9fb0c8" font-size="13" font-family="Arial">55.6</text>
<circle cx="207.7" cy="214.7" r="5" fill="#69d2b0"/>
<text x="215.7" y="206.7" fill="#9fb0c8" font-size="13" font-family="Arial">66.7</text>
<circle cx="271.5" cy="142.3" r="5" fill="#69d2b0"/>
<text x="279.5" y="134.3" fill="#9fb0c8" font-size="13" font-family="Arial">77.8</text>
<circle cx="335.4" cy="214.7" r="5" fill="#69d2b0"/>
<text x="343.4" y="206.7" fill="#9fb0c8" font-size="13" font-family="Arial">66.7</text>
<circle cx="399.2" cy="70.0" r="5" fill="#69d2b0"/>
<text x="407.2" y="62.0" fill="#9fb0c8" font-size="13" font-family="Arial">88.9</text>
<circle cx="463.1" cy="70.0" r="5" fill="#69d2b0"/>
<text x="471.1" y="62.0" fill="#9fb0c8" font-size="13" font-family="Arial">88.9</text>
<circle cx="526.9" cy="142.3" r="5" fill="#69d2b0"/>
<text x="534.9" y="134.3" fill="#9fb0c8" font-size="13" font-family="Arial">77.8</text>
<circle cx="590.8" cy="214.7" r="5" fill="#69d2b0"/>
<text x="598.8" y="206.7" fill="#9fb0c8" font-size="13" font-family="Arial">66.7</text>
<circle cx="654.6" cy="142.3" r="5" fill="#69d2b0"/>
<text x="662.6" y="134.3" fill="#9fb0c8" font-size="13" font-family="Arial">77.8</text>
<circle cx="718.5" cy="70.0" r="5" fill="#69d2b0"/>
<text x="726.5" y="62.0" fill="#9fb0c8" font-size="13" font-family="Arial">88.9</text>
<circle cx="782.3" cy="70.0" r="5" fill="#69d2b0"/>
<text x="790.3" y="62.0" fill="#9fb0c8" font-size="13" font-family="Arial">88.9</text>
<circle cx="846.2" cy="214.7" r="5" fill="#69d2b0"/>
<text x="854.2" y="206.7" fill="#9fb0c8" font-size="13" font-family="Arial">66.7</text>
<circle cx="910.0" cy="287.0" r="5" fill="#69d2b0"/>
<text x="918.0" y="279.0" fill="#9fb0c8" font-size="13" font-family="Arial">55.6</text>
<text x="65.0" y="408" fill="#9fb0c8" font-size="12" font-family="Arial">D+0</text>
<text x="128.8" y="408" fill="#9fb0c8" font-size="12" font-family="Arial">D+1</text>
<text x="192.7" y="408" fill="#9fb0c8" font-size="12" font-family="Arial">D+2</text>
<text x="256.5" y="408" fill="#9fb0c8" font-size="12" font-family="Arial">D+3</text>
<text x="320.4" y="408" fill="#9fb0c8" font-size="12" font-family="Arial">D+4</text>
<text x="384.2" y="408" fill="#9fb0c8" font-size="12" font-family="Arial">D+5</text>
<text x="448.1" y="408" fill="#9fb0c8" font-size="12" font-family="Arial">D+6</text>
<text x="511.9" y="408" fill="#9fb0c8" font-size="12" font-family="Arial">D+7</text>
<text x="575.8" y="408" fill="#9fb0c8" font-size="12" font-family="Arial">D+8</text>
<text x="639.6" y="408" fill="#9fb0c8" font-size="12" font-family="Arial">D+9</text>
<text x="703.5" y="408" fill="#9fb0c8" font-size="12" font-family="Arial">D+10</text>
<text x="767.3" y="408" fill="#9fb0c8" font-size="12" font-family="Arial">D+11</text>
<text x="831.2" y="408" fill="#9fb0c8" font-size="12" font-family="Arial">D+12</text>
<text x="895.0" y="408" fill="#9fb0c8" font-size="12" font-family="Arial">D+13</text>
    </svg>