<svg xmlns="http://www.w3.org/2000/svg" viewBox="0 0 64 64" aria-hidden="true">
  <g fill="none" stroke="#f8efe4" stroke-linecap="round" stroke-width="3.25">
    <circle cx="32" cy="32" r="7.25" />

    <line x1="26" y1="4.5" x2="26" y2="14.5" />
    <line x1="30" y1="3.5" x2="30" y2="14.5" />
    <line x1="34" y1="3.5" x2="34" y2="14.5" />
    <line x1="38" y1="4.5" x2="38" y2="14.5" />

    <line x1="26" y1="49.5" x2="26" y2="59.5" />
    <line x1="30" y1="49.5" x2="30" y2="60.5" />
    <line x1="34" y1="49.5" x2="34" y2="60.5" />
    <line x1="38" y1="49.5" x2="38" y2="59.5" />

    <line x1="4.5" y1="26" x2="14.5" y2="26" />
    <line x1="3.5" y1="30" x2="14.5" y2="30" />
    <line x1="3.5" y1="34" x2="14.5" y2="34" />
    <line x1="4.5" y1="38" x2="14.5" y2="38" />

    <line x1="49.5" y1="26" x2="59.5" y2="26" />
    <line x1="49.5" y1="30" x2="60.5" y2="30" />
    <line x1="49.5" y1="34" x2="60.5" y2="34" />
    <line x1="49.5" y1="38" x2="59.5" y2="38" />
  </g>
</svg>
